<svg width="48" height="48" viewBox="0 0 48 48" fill="none" xmlns="http://www.w3.org/2000/svg">
<path d="M24 4C35.046 4 44 12.954 44 24C44 35.046 35.046 44 24 44C20.808 44.0044 17.6617 43.2417 14.826 41.776L7.17402 43.91C6.7471 44.0291 6.29618 44.0326 5.86746 43.9201C5.43875 43.8076 5.04765 43.5832 4.73424 43.2698C4.42082 42.9564 4.19637 42.5653 4.08387 42.1365C3.97137 41.7078 3.97487 41.2569 4.09402 40.83L6.23002 33.184C4.76072 30.3459 3.99586 27.1959 4.00002 24C4.00002 12.954 12.954 4 24 4ZM24 7C19.4913 7 15.1673 8.79107 11.9792 11.9792C8.79108 15.1673 7.00002 19.4913 7.00002 24C7.00002 26.94 7.74602 29.766 9.14602 32.274L9.44602 32.814L7.22202 40.782L15.196 38.558L15.736 38.858C18.0048 40.1194 20.5323 40.8445 23.1247 40.9776C25.7171 41.1108 28.3056 40.6485 30.6917 39.6262C33.0778 38.6039 35.198 37.0488 36.8899 35.08C38.5818 33.1113 39.8003 30.7812 40.4521 28.2685C41.1039 25.7559 41.1716 23.1273 40.6501 20.5844C40.1285 18.0415 39.0316 15.6518 37.4433 13.5985C35.855 11.5453 33.8176 9.88304 31.4874 8.73925C29.1571 7.59545 26.5959 7.0005 24 7ZM17.5 26H26.496C26.8761 26.0001 27.2419 26.1445 27.5196 26.4039C27.7973 26.6634 27.9662 27.0186 27.9921 27.3978C28.018 27.7769 27.899 28.1518 27.6592 28.4466C27.4193 28.7414 27.0765 28.9342 26.7 28.986L26.496 29H17.5C17.12 28.9999 16.7541 28.8555 16.4764 28.5961C16.1987 28.3366 16.0299 27.9814 16.004 27.6022C15.9781 27.2231 16.097 26.8482 16.3369 26.5534C16.5767 26.2586 16.9195 26.0658 17.296 26.014L17.5 26H26.496H17.5ZM17.5 19H30.51C30.8899 19.0006 31.2554 19.1453 31.5327 19.405C31.81 19.6646 31.9785 20.0197 32.0042 20.3988C32.0298 20.7778 31.9107 21.1524 31.6708 21.447C31.431 21.7416 31.0883 21.9342 30.712 21.986L30.51 22H17.5C17.12 21.9999 16.7541 21.8555 16.4764 21.5961C16.1987 21.3366 16.0299 20.9814 16.004 20.6022C15.9781 20.2231 16.097 19.8482 16.3369 19.5534C16.5767 19.2586 16.9195 19.0658 17.296 19.014L17.5 19H30.51H17.5Z" fill="black"/>
</svg>
