<svg width="48" height="48" viewBox="0 0 48 48" fill="none" xmlns="http://www.w3.org/2000/svg">
<path d="M8.12611 41.7497L8.0903 42.0312H8.37411H39.625H39.9088L39.873 41.7497C39.1516 36.082 34.2281 31.6875 28.2857 31.6875H19.7143C13.7683 31.6875 8.84752 36.0776 8.12611 41.7497ZM19.7143 27.9688H28.2857C36.8299 27.9688 43.75 34.7863 43.75 43.1875C43.75 44.5988 42.5862 45.75 41.1429 45.75H6.85714C5.41381 45.75 4.25 44.5988 4.25 43.1875C4.25 34.7863 11.1701 27.9688 19.7143 27.9688ZM35.1786 12.25C35.1786 18.3212 30.1773 23.25 24 23.25C17.8218 23.25 12.8214 18.3221 12.8214 12.25C12.8214 6.17878 17.8227 1.25 24 1.25C30.1773 1.25 35.1786 6.17878 35.1786 12.25ZM31.3929 12.25C31.3929 8.23138 28.0727 4.96875 24 4.96875C19.9282 4.96875 16.6071 8.23136 16.6071 12.25C16.6071 16.2677 19.9272 19.5312 24 19.5312C28.0727 19.5312 31.3929 16.2686 31.3929 12.25Z" fill="black" stroke="white" stroke-width="0.5"/>
</svg>
