<svg width="48" height="48" viewBox="0 0 48 48" fill="none" xmlns="http://www.w3.org/2000/svg">
<path d="M6.5 13C6.5 11.1435 7.2375 9.36301 8.55025 8.05025C9.86301 6.7375 11.6435 6 13.5 6H34.5C36.3565 6 38.137 6.7375 39.4497 8.05025C40.7625 9.36301 41.5 11.1435 41.5 13V34C41.5 35.8565 40.7625 37.637 39.4497 38.9497C38.137 40.2625 36.3565 41 34.5 41H13.5C11.6435 41 9.86301 40.2625 8.55025 38.9497C7.2375 37.637 6.5 35.8565 6.5 34V13Z" stroke="black" stroke-width="3" stroke-linecap="round" stroke-linejoin="round"/>
<path d="M17.875 21.75C20.2912 21.75 22.25 19.7912 22.25 17.375C22.25 14.9588 20.2912 13 17.875 13C15.4588 13 13.5 14.9588 13.5 17.375C13.5 19.7912 15.4588 21.75 17.875 21.75Z" stroke="black" stroke-width="3" stroke-linecap="round" stroke-linejoin="round"/>
<path d="M28.4205 24.5867L13.5 41H34.7327C36.5275 41 38.2488 40.287 39.5179 39.0179C40.787 37.7488 41.5 36.0275 41.5 34.2327V34C41.5 33.1845 41.1938 32.8712 40.6425 32.2675L33.59 24.5762C33.2613 24.2177 32.8615 23.9316 32.4161 23.7362C31.9706 23.5408 31.4893 23.4404 31.0029 23.4414C30.5165 23.4424 30.0357 23.5447 29.591 23.7419C29.1464 23.9391 28.7477 24.2269 28.4205 24.5867V24.5867Z" stroke="black" stroke-width="3" stroke-linecap="round" stroke-linejoin="round"/>
</svg>
