<svg width="48" height="48" viewBox="0 0 48 48" fill="none" xmlns="http://www.w3.org/2000/svg">
<path d="M32.562 20.562C32.8437 20.2803 33.0019 19.8983 33.0019 19.5C33.0019 19.1017 32.8437 18.7197 32.562 18.438C32.2803 18.1563 31.8983 17.9981 31.5 17.9981C31.1017 17.9981 30.7197 18.1563 30.438 18.438L22.5 26.379L19.062 22.938C18.9225 22.7985 18.757 22.6879 18.5748 22.6124C18.3925 22.5369 18.1972 22.4981 18 22.4981C17.8028 22.4981 17.6075 22.5369 17.4252 22.6124C17.243 22.6879 17.0775 22.7985 16.938 22.938C16.7985 23.0775 16.6879 23.243 16.6124 23.4252C16.537 23.6075 16.4981 23.8028 16.4981 24C16.4981 24.1972 16.537 24.3925 16.6124 24.5747C16.6879 24.757 16.7985 24.9225 16.938 25.062L21.438 29.562C21.5773 29.7017 21.7429 29.8125 21.9251 29.8881C22.1073 29.9638 22.3027 30.0027 22.5 30.0027C22.6973 30.0027 22.8927 29.9638 23.0749 29.8881C23.2571 29.8125 23.4227 29.7017 23.562 29.562L32.562 20.562V20.562ZM25.062 6.441C24.7807 6.15979 24.3992 6.00182 24.0015 6.00182C23.6038 6.00182 23.2223 6.15979 22.941 6.441C19.212 10.164 15.09 12 10.5 12C10.1022 12 9.72064 12.158 9.43934 12.4393C9.15804 12.7206 9 13.1022 9 13.5V22.503C9 32.16 13.923 38.724 23.526 41.922C23.8337 42.0247 24.1663 42.0247 24.474 41.922C34.074 38.724 39 32.16 39 22.503V13.5C39 13.1022 38.842 12.7206 38.5607 12.4393C38.2794 12.158 37.8978 12 37.5 12C32.907 12 28.785 10.17 25.065 6.441H25.062ZM12 14.94C16.44 14.604 20.442 12.762 24 9.564C27.555 12.762 31.56 14.604 36 14.94V22.5C36 26.802 34.911 30.192 32.937 32.832C31.023 35.388 28.11 37.461 24 38.913C19.89 37.464 16.977 35.388 15.063 32.832C13.089 30.195 12 26.805 12 22.503V14.943V14.94Z" fill="black"/>
</svg>
