<svg width="48" height="48" viewBox="0 0 48 48" fill="none" xmlns="http://www.w3.org/2000/svg">
<g clip-path="url(#clip0_20_2643)">
<path d="M33 3C33.7956 3 34.5587 3.31607 35.1213 3.87868C35.6839 4.44129 36 5.20435 36 6V42C36 42.7957 35.6839 43.5587 35.1213 44.1213C34.5587 44.6839 33.7956 45 33 45H15C14.2044 45 13.4413 44.6839 12.8787 44.1213C12.3161 43.5587 12 42.7957 12 42V6C12 5.20435 12.3161 4.44129 12.8787 3.87868C13.4413 3.31607 14.2044 3 15 3H33ZM15 0C13.4087 0 11.8826 0.632141 10.7574 1.75736C9.63214 2.88258 9 4.4087 9 6V42C9 43.5913 9.63214 45.1174 10.7574 46.2426C11.8826 47.3679 13.4087 48 15 48H33C34.5913 48 36.1174 47.3679 37.2426 46.2426C38.3679 45.1174 39 43.5913 39 42V6C39 4.4087 38.3679 2.88258 37.2426 1.75736C36.1174 0.632141 34.5913 0 33 0L15 0Z" fill="black"/>
<path d="M24 42C24.7956 42 25.5587 41.6839 26.1213 41.1213C26.6839 40.5587 27 39.7956 27 39C27 38.2044 26.6839 37.4413 26.1213 36.8787C25.5587 36.3161 24.7956 36 24 36C23.2044 36 22.4413 36.3161 21.8787 36.8787C21.3161 37.4413 21 38.2044 21 39C21 39.7956 21.3161 40.5587 21.8787 41.1213C22.4413 41.6839 23.2044 42 24 42Z" fill="black"/>
</g>
<defs>
<clipPath id="clip0_20_2643">
<rect width="48" height="48" fill="white"/>
</clipPath>
</defs>
</svg>
