<svg width="54" height="54" viewBox="0 0 54 54" fill="none" xmlns="http://www.w3.org/2000/svg">
<path d="M49.051 31.4999C46.9652 41.7689 37.8865 49.4999 27.001 49.4999C14.5742 49.4999 4.50098 39.4267 4.50098 26.9999C4.50098 15.3337 13.3817 5.73968 24.751 4.61243" stroke="black" stroke-width="3.375" stroke-linecap="round" stroke-linejoin="round"/>
<path d="M15.751 33.7725L15.7735 33.7477M38.251 33.7725L38.2735 33.7477M24.751 27.0225L24.7735 26.9977M47.251 20.2725L47.2735 20.2477M38.251 13.5225L38.2735 13.4978M24.751 4.5C23.626 7.875 25.876 11.25 29.4422 11.25C24.751 19.125 29.251 27 40.501 25.875C40.501 31.5 46.126 32.625 48.826 31.5315M14.626 22.5C14.3276 22.5 14.0415 22.3815 13.8305 22.1705C13.6195 21.9595 13.501 21.6734 13.501 21.375C13.501 21.0766 13.6195 20.7905 13.8305 20.5795C14.0415 20.3685 14.3276 20.25 14.626 20.25C14.9243 20.25 15.2105 20.3685 15.4215 20.5795C15.6324 20.7905 15.751 21.0766 15.751 21.375C15.751 21.6734 15.6324 21.9595 15.4215 22.1705C15.2105 22.3815 14.9243 22.5 14.626 22.5ZM46.126 9C45.8276 9 45.5415 8.88147 45.3305 8.67049C45.1195 8.45952 45.001 8.17337 45.001 7.875C45.001 7.57663 45.1195 7.29048 45.3305 7.07951C45.5415 6.86853 45.8276 6.75 46.126 6.75C46.4243 6.75 46.7105 6.86853 46.9215 7.07951C47.1325 7.29048 47.251 7.57663 47.251 7.875C47.251 8.17337 47.1325 8.45952 46.9215 8.67049C46.7105 8.88147 46.4243 9 46.126 9ZM27.001 42.75C26.4042 42.75 25.8319 42.5129 25.41 42.091C24.988 41.669 24.751 41.0967 24.751 40.5C24.751 39.9033 24.988 39.331 25.41 38.909C25.8319 38.4871 26.4042 38.25 27.001 38.25C27.5977 38.25 28.17 38.4871 28.592 38.909C29.0139 39.331 29.251 39.9033 29.251 40.5C29.251 41.0967 29.0139 41.669 28.592 42.091C28.17 42.5129 27.5977 42.75 27.001 42.75Z" stroke="black" stroke-width="3.375" stroke-linecap="round" stroke-linejoin="round"/>
</svg>
