<svg width="48" height="48" viewBox="0 0 48 48" fill="none" xmlns="http://www.w3.org/2000/svg">
<path d="M46.5 36H40.5V30H37.5V36H31.5V39H37.5V45H40.5V39H46.5V36Z" fill="black"/>
<path d="M37.5 7.5H33V6C32.9976 5.20508 32.6808 4.4434 32.1187 3.8813C31.5566 3.31921 30.7949 3.00237 30 3H18C17.2051 3.00237 16.4434 3.31921 15.8813 3.8813C15.3192 4.4434 15.0024 5.20508 15 6V7.5H10.5C9.70508 7.50237 8.9434 7.81921 8.3813 8.3813C7.81921 8.9434 7.50237 9.70508 7.5 10.5V42C7.50237 42.7949 7.81921 43.5566 8.3813 44.1187C8.9434 44.6808 9.70508 44.9976 10.5 45H25.5V42H10.5V10.5H15V15H33V10.5H37.5V24H40.5V10.5C40.4976 9.70508 40.1808 8.9434 39.6187 8.3813C39.0566 7.81921 38.2949 7.50237 37.5 7.5ZM30 12H18V6H30V12Z" fill="black"/>
</svg>
